<svg width="256" height="256" viewBox="0 0 256 256" fill="none" xmlns="http://www.w3.org/2000/svg">
<rect width="256" height="256" rx="128" fill="#FABB18"/>
<path d="M41.36 157.152C38.608 157.152 36.304 156.192 34.448 154.272C32.656 152.288 31.76 149.92 31.76 147.168C31.76 144.352 32.656 141.984 34.448 140.064C36.304 138.144 38.608 137.184 41.36 137.184C44.176 137.184 46.48 138.144 48.272 140.064C50.064 141.984 50.96 144.352 50.96 147.168C50.96 149.92 50.064 152.288 48.272 154.272C46.48 156.192 44.176 157.152 41.36 157.152ZM63.662 156V93.6H82.094C88.43 93.6 93.998 94.656 98.798 96.768C103.662 98.816 107.438 102.112 110.126 106.656C112.814 111.2 114.158 117.152 114.158 124.512C114.158 131.872 112.814 137.888 110.126 142.56C107.438 147.168 103.758 150.56 99.086 152.736C94.414 154.912 89.07 156 83.054 156H63.662ZM80.174 142.752H81.134C84.142 142.752 86.862 142.24 89.294 141.216C91.726 140.192 93.646 138.368 95.054 135.744C96.526 133.12 97.262 129.376 97.262 124.512C97.262 119.648 96.526 115.968 95.054 113.472C93.646 110.912 91.726 109.184 89.294 108.288C86.862 107.328 84.142 106.848 81.134 106.848H80.174V142.752ZM136.392 157.152C133.384 157.152 130.792 156.48 128.616 155.136C126.504 153.728 124.872 151.904 123.72 149.664C122.568 147.424 121.992 144.992 121.992 142.368C121.992 137.376 124.04 133.472 128.136 130.656C132.232 127.776 138.888 125.856 148.104 124.896C147.976 123.744 147.656 122.816 147.144 122.112C146.632 121.344 145.896 120.8 144.936 120.48C143.976 120.096 142.792 119.904 141.384 119.904C139.656 119.904 137.832 120.256 135.912 120.96C133.992 121.6 131.784 122.592 129.288 123.936L123.528 113.184C125.768 111.84 128.04 110.688 130.344 109.728C132.648 108.768 134.984 108.064 137.352 107.616C139.72 107.104 142.152 106.848 144.648 106.848C148.808 106.848 152.36 107.648 155.304 109.248C158.312 110.784 160.616 113.216 162.216 116.544C163.816 119.808 164.616 124.064 164.616 129.312V156H151.176L150.024 151.392H149.64C147.72 153.12 145.672 154.528 143.496 155.616C141.384 156.64 139.016 157.152 136.392 157.152ZM142.152 144.48C143.496 144.48 144.616 144.192 145.512 143.616C146.408 142.976 147.272 142.176 148.104 141.216V134.688C145.48 135.072 143.4 135.584 141.864 136.224C140.392 136.864 139.336 137.6 138.696 138.432C138.056 139.264 137.736 140.128 137.736 141.024C137.736 142.112 138.12 142.976 138.888 143.616C139.656 144.192 140.744 144.48 142.152 144.48ZM182.484 174.048C180.885 174.048 179.541 173.952 178.453 173.76C177.365 173.568 176.277 173.344 175.189 173.088L178.069 160.608C178.517 160.672 179.029 160.768 179.605 160.896C180.181 161.088 180.693 161.184 181.141 161.184C183.381 161.184 185.077 160.736 186.229 159.84C187.381 158.944 188.181 157.792 188.629 156.384L189.205 154.272L170.965 108H187.477L193.237 126.432C193.941 128.608 194.549 130.816 195.061 133.056C195.573 135.296 196.117 137.632 196.693 140.064H197.077C197.589 137.76 198.069 135.488 198.517 133.248C199.029 131.008 199.573 128.736 200.149 126.432L204.949 108H220.693L204.565 155.232C202.901 159.52 201.109 163.04 199.189 165.792C197.333 168.608 195.061 170.688 192.373 172.032C189.749 173.376 186.453 174.048 182.484 174.048Z" fill="black"/>
</svg>
