<svg width="135" height="31" viewBox="0 0 135 31" fill="none" xmlns="http://www.w3.org/2000/svg">
<path d="M9.008 24.432C7.544 24.432 6.02 24.156 4.436 23.604C2.852 23.052 1.424 22.212 0.152 21.084L3.68 16.836C4.52 17.508 5.42 18.06 6.38 18.492C7.364 18.9 8.288 19.104 9.152 19.104C10.088 19.104 10.76 18.96 11.168 18.672C11.6 18.384 11.816 17.976 11.816 17.448C11.816 17.064 11.684 16.764 11.42 16.548C11.18 16.308 10.82 16.092 10.34 15.9C9.884 15.684 9.32 15.444 8.648 15.18L5.732 13.956C4.892 13.62 4.112 13.164 3.392 12.588C2.672 11.988 2.096 11.268 1.664 10.428C1.232 9.564 1.016 8.568 1.016 7.44C1.016 6.096 1.388 4.884 2.132 3.804C2.876 2.7 3.896 1.824 5.192 1.176C6.512 0.503999 8.024 0.167998 9.728 0.167998C11.072 0.167998 12.428 0.431998 13.796 0.959998C15.188 1.464 16.424 2.244 17.504 3.3L14.408 7.188C13.616 6.636 12.848 6.216 12.104 5.928C11.384 5.64 10.592 5.496 9.728 5.496C8.984 5.496 8.384 5.628 7.928 5.892C7.496 6.156 7.28 6.552 7.28 7.08C7.28 7.44 7.412 7.752 7.676 8.016C7.964 8.256 8.372 8.484 8.9 8.7C9.428 8.892 10.04 9.132 10.736 9.42L13.58 10.536C14.564 10.92 15.392 11.412 16.064 12.012C16.736 12.588 17.252 13.284 17.612 14.1C17.972 14.916 18.152 15.864 18.152 16.944C18.152 18.264 17.792 19.5 17.072 20.652C16.376 21.78 15.344 22.692 13.976 23.388C12.608 24.084 10.952 24.432 9.008 24.432ZM26.8803 24.432C24.9123 24.432 23.4843 23.772 22.5963 22.452C21.7083 21.108 21.2643 19.32 21.2643 17.088V6H27.4563V16.296C27.4563 17.448 27.6003 18.216 27.8883 18.6C28.2003 18.984 28.6563 19.176 29.2563 19.176C29.8323 19.176 30.3123 19.056 30.6963 18.816C31.0803 18.576 31.4643 18.168 31.8483 17.592V6H38.0403V24H33.0003L32.5683 21.624H32.4243C31.7043 22.488 30.9003 23.172 30.0123 23.676C29.1483 24.18 28.1043 24.432 26.8803 24.432ZM42.2208 24V6H47.2608L47.6928 8.16H47.8368C48.5568 7.464 49.3728 6.864 50.2848 6.36C51.2208 5.832 52.3008 5.568 53.5248 5.568C55.5168 5.568 56.9448 6.24 57.8088 7.584C58.6968 8.904 59.1408 10.68 59.1408 12.912V24H52.9488V13.704C52.9488 12.552 52.8048 11.784 52.5168 11.4C52.2288 11.016 51.7728 10.824 51.1488 10.824C50.5728 10.824 50.0928 10.944 49.7088 11.184C49.3248 11.424 48.8928 11.76 48.4128 12.192V24H42.2208Z" fill="black"/>
<path d="M66.8459 24.432C65.8139 24.432 64.9499 24.072 64.2539 23.352C63.5819 22.608 63.2459 21.72 63.2459 20.688C63.2459 19.632 63.5819 18.744 64.2539 18.024C64.9499 17.304 65.8139 16.944 66.8459 16.944C67.9019 16.944 68.7659 17.304 69.4379 18.024C70.1099 18.744 70.4459 19.632 70.4459 20.688C70.4459 21.72 70.1099 22.608 69.4379 23.352C68.7659 24.072 67.9019 24.432 66.8459 24.432ZM75.2092 24V0.599999H82.1212C84.4972 0.599999 86.5852 0.995999 88.3852 1.788C90.2092 2.556 91.6252 3.792 92.6332 5.496C93.6412 7.2 94.1452 9.432 94.1452 12.192C94.1452 14.952 93.6412 17.208 92.6332 18.96C91.6252 20.688 90.2452 21.96 88.4932 22.776C86.7412 23.592 84.7372 24 82.4812 24H75.2092ZM81.4012 19.032H81.7612C82.8892 19.032 83.9092 18.84 84.8212 18.456C85.7332 18.072 86.4532 17.388 86.9812 16.404C87.5332 15.42 87.8092 14.016 87.8092 12.192C87.8092 10.368 87.5332 8.988 86.9812 8.052C86.4532 7.092 85.7332 6.444 84.8212 6.108C83.9092 5.748 82.8892 5.568 81.7612 5.568H81.4012V19.032ZM102.483 24.432C101.355 24.432 100.383 24.18 99.5668 23.676C98.7748 23.148 98.1628 22.464 97.7308 21.624C97.2988 20.784 97.0828 19.872 97.0828 18.888C97.0828 17.016 97.8508 15.552 99.3868 14.496C100.923 13.416 103.419 12.696 106.875 12.336C106.827 11.904 106.707 11.556 106.515 11.292C106.323 11.004 106.047 10.8 105.687 10.68C105.327 10.536 104.883 10.464 104.355 10.464C103.707 10.464 103.023 10.596 102.303 10.86C101.583 11.1 100.755 11.472 99.8188 11.976L97.6588 7.944C98.4988 7.44 99.3508 7.008 100.215 6.648C101.079 6.288 101.955 6.024 102.843 5.856C103.731 5.664 104.643 5.568 105.579 5.568C107.139 5.568 108.471 5.868 109.575 6.468C110.703 7.044 111.567 7.956 112.167 9.204C112.767 10.428 113.067 12.024 113.067 13.992V24H108.027L107.595 22.272H107.451C106.731 22.92 105.963 23.448 105.147 23.856C104.355 24.24 103.467 24.432 102.483 24.432ZM104.643 19.68C105.147 19.68 105.567 19.572 105.903 19.356C106.239 19.116 106.563 18.816 106.875 18.456V16.008C105.891 16.152 105.111 16.344 104.535 16.584C103.983 16.824 103.587 17.1 103.347 17.412C103.107 17.724 102.987 18.048 102.987 18.384C102.987 18.792 103.131 19.116 103.419 19.356C103.707 19.572 104.115 19.68 104.643 19.68ZM119.768 30.768C119.168 30.768 118.664 30.732 118.256 30.66C117.848 30.588 117.44 30.504 117.032 30.408L118.112 25.728C118.28 25.752 118.472 25.788 118.688 25.836C118.904 25.908 119.096 25.944 119.264 25.944C120.104 25.944 120.74 25.776 121.172 25.44C121.604 25.104 121.904 24.672 122.072 24.144L122.288 23.352L115.448 6H121.64L123.8 12.912C124.064 13.728 124.292 14.556 124.484 15.396C124.676 16.236 124.88 17.112 125.096 18.024H125.24C125.432 17.16 125.612 16.308 125.78 15.468C125.972 14.628 126.176 13.776 126.392 12.912L128.192 6H134.096L128.048 23.712C127.424 25.32 126.752 26.64 126.032 27.672C125.336 28.728 124.484 29.508 123.476 30.012C122.492 30.516 121.256 30.768 119.768 30.768Z" fill="#FABB18"/>
</svg>
