<svg width="28" height="28" viewBox="0 0 28 28" fill="none" xmlns="http://www.w3.org/2000/svg">
<path d="M10.4525 25.6682C11.0606 27.0357 12.4091 28 14.0006 28C15.5922 28 16.9407 27.0357 17.5488 25.6682C16.4266 25.7231 15.2596 25.76 14.0006 25.76C12.7418 25.76 11.5748 25.7231 10.4525 25.6682Z" fill="black"/>
<path d="M26.3531 19.74C24.8769 17.8785 22.3995 14.2195 22.3995 10.64C22.3995 7.09073 20.1192 3.89758 16.7995 2.72382C16.7592 1.21406 15.5183 0 14.0006 0C12.4819 0 11.2421 1.21406 11.2017 2.72382C7.88095 3.89758 5.60064 7.09073 5.60064 10.64C5.60064 14.2207 3.12434 17.8785 1.64706 19.74C1.15427 20.3616 1.00191 21.1825 1.24051 21.9363C1.47348 22.6721 2.05361 23.2422 2.79282 23.4595C4.08755 23.8415 6.20991 24.2715 9.44676 24.491C10.8479 24.5851 12.3543 24.64 14.0007 24.64C15.646 24.64 17.1524 24.5851 18.5535 24.491C21.7914 24.2715 23.9127 23.8415 25.2085 23.4595C25.9477 23.2422 26.5268 22.6722 26.7597 21.9363C26.9983 21.1825 26.8448 20.3616 26.3531 19.74Z" fill="black"/>
</svg>
