<svg width="18" height="20" viewBox="0 0 18 20" fill="none" xmlns="http://www.w3.org/2000/svg">
<path opacity="0.3" d="M11.5795 14.2955C11.1402 13.8562 11.1402 13.1438 11.5795 12.7045C12.0189 12.2652 12.7312 12.2652 13.1705 12.7045L17.6705 17.2045C18.1098 17.6438 18.1098 18.3562 17.6705 18.7955C17.2312 19.2348 16.5189 19.2348 16.0795 18.7955L11.5795 14.2955Z" fill="black"/>
<path fill-rule="evenodd" clip-rule="evenodd" d="M0 7.875C0 12.2242 3.52576 15.75 7.875 15.75C12.2242 15.75 15.75 12.2242 15.75 7.875C15.75 3.52576 12.2242 0 7.875 0C3.52576 0 0 3.52576 0 7.875ZM13.5 7.87501C13.5 10.9816 10.9816 13.5 7.87501 13.5C4.76841 13.5 2.25001 10.9816 2.25001 7.87501C2.25001 4.76841 4.76841 2.25001 7.87501 2.25001C10.9816 2.25001 13.5 4.76841 13.5 7.87501Z" fill="black"/>
</svg>
