<svg width="26" height="26" viewBox="0 0 26 26" fill="none" xmlns="http://www.w3.org/2000/svg">
<path d="M16.8998 7.80002C16.8998 9.95393 15.1537 11.7 12.9998 11.7C10.8459 11.7 9.0998 9.95393 9.0998 7.80002C9.0998 5.64611 10.8459 3.90002 12.9998 3.90002C15.1537 3.90002 16.8998 5.64611 16.8998 7.80002Z" fill="#FABB18"/>
<path d="M23.3998 10.4C23.3998 11.836 22.2357 13 20.7998 13C19.3639 13 18.1998 11.836 18.1998 10.4C18.1998 8.96408 19.3639 7.80002 20.7998 7.80002C22.2357 7.80002 23.3998 8.96408 23.3998 10.4Z" fill="white"/>
<path d="M18.1998 19.5C18.1998 16.6281 15.8717 14.3 12.9998 14.3C10.1279 14.3 7.7998 16.6281 7.7998 19.5V23.4H18.1998V19.5Z" fill="#FABB18"/>
<path d="M7.7998 10.4C7.7998 11.836 6.63574 13 5.1998 13C3.76386 13 2.5998 11.836 2.5998 10.4C2.5998 8.96408 3.76386 7.80002 5.1998 7.80002C6.63574 7.80002 7.7998 8.96408 7.7998 10.4Z" fill="white"/>
<path d="M20.7998 23.4V19.5C20.7998 18.1296 20.4464 16.8418 19.8258 15.7226C20.1371 15.6426 20.4635 15.6 20.7998 15.6C22.9537 15.6 24.6998 17.3461 24.6998 19.5V23.4H20.7998Z" fill="white"/>
<path d="M6.17385 15.7226C5.55321 16.8418 5.1998 18.1296 5.1998 19.5V23.4H1.2998V19.5C1.2998 17.3461 3.04589 15.6 5.1998 15.6C5.53613 15.6 5.8625 15.6426 6.17385 15.7226Z" fill="white"/>
</svg>
